<?xml version="1.0" encoding="UTF-8"?><svg version="1.1" width="21px" height="21px" viewBox="0 0 21.0 21.0" xmlns="http://www.w3.org/2000/svg" xmlns:xlink="http://www.w3.org/1999/xlink"><defs><clipPath id="50481031145112155455250"><path d="M1538,0 L1538,1206 L0,1206 L0,0 L1538,0 Z"></path></clipPath><clipPath id="12211251114102481169598111"><path d="M208,0 L208,2566 L0,2566 L0,0 L208,0 Z"></path></clipPath><clipPath id="1091181211161191224911150106"><path d="M9.34411471,0 C9.87714083,0.0113674813 10.3805432,0.247450837 10.7301147,0.65 C11.1297228,1.12164758 11.3809234,1.70093984 11.4521147,2.315 L12.7751147,11.479 C12.8094232,11.8458371 12.9525429,12.1940601 13.1861147,12.479 C13.2943775,12.6147673 13.4548395,12.6986287 13.6281147,12.71 C13.8078035,12.7016193 13.9740149,12.6122623 14.0801147,12.467 C14.3080852,12.1840071 14.4472566,11.8399059 14.4801147,11.478 L15.2921147,5.878 C15.3676022,5.2948561 15.5975317,4.74247289 15.9581147,4.278 C16.3096886,3.83632936 16.8360482,3.56949935 17.4001147,3.547 L19.3721147,3.547 C19.5386404,3.54769566 19.6977656,3.61589218 19.8131147,3.736 C19.9949989,3.91802116 20.0504059,4.19116477 19.9538256,4.42967223 C19.8572453,4.6681797 19.6274006,4.82581462 19.3701147,4.83 L17.3961147,4.83 C17.2064835,4.85081303 17.0347575,4.9515929 16.9241147,5.107 C16.715441,5.38577749 16.5846397,5.71502405 16.5451147,6.061 L15.7201147,11.67 C15.6550556,12.2841254 15.4070019,12.864543 15.0081147,13.336 C14.6697735,13.7539125 14.1608187,13.9967066 13.6231147,13.9967066 C13.0854107,13.9967066 12.5764559,13.7539125 12.2381147,13.336 C11.8395247,12.864561 11.5921193,12.2840294 11.5281147,11.67 L10.1911147,2.506 C10.1590845,2.14389427 10.0198193,1.79956096 9.79111471,1.517 C9.68452292,1.37342508 9.5169211,1.28795925 9.33811471,1.286 L9.25811471,1.286 L8.98811471,1.44 L8.93411471,1.479 C8.70524563,1.73255903 8.55847826,2.04945106 8.51311471,2.388 L7.76611471,6.24 C7.67013199,6.81766198 7.41094021,7.35582323 7.01911471,7.791 C6.68335911,8.16468423 6.20740051,8.38201692 5.70511471,8.391 C5.16944334,8.37978492 4.66450058,8.13860736 4.31911471,7.729 C3.92002249,7.25791046 3.66916879,6.67931172 3.59811471,6.066 C3.55752887,5.71382858 3.42280737,5.37909747 3.20811471,5.097 C3.09854764,4.94677817 2.93013748,4.85038791 2.74511471,4.832 L0.634114706,4.832 C0.464235668,4.83310951 0.30110843,4.76556499 0.18173873,4.64468905 C0.0623690308,4.52381311 -0.00312477761,4.35985177 0,4.19 C-0.000992539368,3.83858284 0.282699687,3.55265329 0.634114706,3.551 L2.73911471,3.551 C3.29993373,3.56828886 3.8236827,3.83529814 4.16711471,4.279 C4.53999013,4.73968171 4.77256069,5.29785104 4.83711471,5.887 C4.87862304,6.24924712 5.02025339,6.59276132 5.24611471,6.879 C5.34583744,6.99317388 5.48047693,7.07121557 5.62911471,7.101 L5.74511471,7.129 L6.09411471,6.929 L6.12811471,6.89 C6.34070887,6.63189392 6.47899082,6.32075953 6.52811471,5.99 L7.28211471,2.14 C7.37425355,1.56498557 7.62814362,1.0280705 8.01411471,0.592 C8.35860158,0.222160419 8.83876198,0.00843488413 9.34411471,0 Z"></path></clipPath><clipPath id="57103951159752951039997"><path d="M6.457,0 C6.99632605,0 7.50834404,0.237259939 7.857,0.648734853 C8.25859035,1.11027608 8.50947027,1.68356637 8.576,2.29173485 L9.934,11.3377349 C9.96547967,11.6960539 10.104959,12.0363836 10.334,12.3137349 C10.4436772,12.4558844 10.6124666,12.5399105 10.792,12.5417349 L10.876,12.5417349 L11.149,12.3897349 L11.204,12.3507349 C11.4355664,12.1019474 11.584386,11.7875398 11.63,11.4507349 L12.386,7.65073485 C12.4846667,7.07783578 12.7476595,6.54594415 13.143,6.11973485 C13.4867296,5.74857827 13.9671947,5.5339946 14.473,5.52573485 C15.0108556,5.53630373 15.5192574,5.77343685 15.873,6.17873485 C16.2751837,6.63989395 16.5295137,7.21126533 16.603,7.81873485 C16.6447536,8.16783354 16.7813666,8.49881744 16.998,8.77573485 C17.1108044,8.92466715 17.2809782,9.01936943 17.467,9.03673485 L19.604,9.03673485 C19.7720344,9.03566432 19.9335111,9.10187376 20.0524256,9.22060046 C20.1713402,9.33932717 20.2378049,9.50069897 20.2370072,9.66873485 C20.2362062,9.83741312 20.1684368,9.99886724 20.0486007,10.1175782 C19.9287645,10.2362891 19.7666783,10.3025324 19.598,10.3017349 L17.461,10.3017349 C16.8971598,10.2866387 16.3685818,10.0239958 16.016,9.58373485 C15.6396111,9.13273871 15.4035607,8.58137496 15.337,7.99773485 C15.2949516,7.63865997 15.1513307,7.29903459 14.923,7.01873485 C14.8212313,6.90561308 14.6853738,6.82873253 14.536,6.79973485 L14.419,6.77173485 L14.066,6.97173485 L14.031,7.00973485 C13.8190977,7.26251294 13.6807273,7.56865732 13.631,7.89473485 L12.872,11.6947349 C12.7773219,12.2648057 12.5200114,12.7954002 12.131,13.2227349 C11.7776339,13.5888091 11.2927515,13.7986728 10.784,13.8057349 C10.2486447,13.7954154 9.7416098,13.5632659 9.384,13.1647349 C8.98085523,12.7029121 8.72612886,12.1303876 8.653,11.5217349 L7.313,2.48173485 C7.27809443,2.11744471 7.13297949,1.77244789 6.897,1.49273485 C6.78600118,1.35811508 6.62414392,1.27555701 6.45,1.26473485 C6.26911433,1.27217997 6.10106862,1.36023886 5.992,1.50473485 C5.76374069,1.78216785 5.62435135,2.12192936 5.592,2.47973485 L4.77,8.00973485 C4.69253366,8.58650345 4.45953916,9.13130958 4.096,9.58573485 C3.73500247,10.0240106 3.20344678,10.2865117 2.636,10.3067349 L0.636,10.3067349 C0.468239522,10.3064175 0.307465842,10.2395184 0.189,10.1207349 C0.068608592,10.0035185 0.000485856426,9.84276323 0,9.67473485 C0.00165328976,9.32331983 0.287582836,9.03962761 0.639,9.04073485 L2.639,9.04073485 C2.82972925,9.02129782 3.00335288,8.9221362 3.117,8.76773485 C3.32772278,8.49455502 3.46043111,8.16935049 3.501,7.82673485 L4.336,2.29173485 C4.40309694,1.68333997 4.65468527,1.11002564 5.057,0.648734853 C5.40565596,0.237259939 5.91767395,0 6.457,0 Z"></path></clipPath></defs><g clip-path="url(#50481031145112155455250)" transform="translate(-85.0 -384.0)"><g clip-path="url(#50481031145112155455250)"><polygon points="0,0 1538,0 1538,1206 0,1206 0,0" stroke="none" fill="transparent"></polygon></g><g transform="translate(66.0 51.0)"><g clip-path="url(#12211251114102481169598111)"><polygon points="0,0 208,0 208,1155 0,1155 0,0" stroke="none" fill="transparent"></polygon></g><g transform="translate(19.0 333.0)"><g transform="translate(0.0 6.261734852572658)"><g clip-path="url(#1091181211161191224911150106)"><polygon points="-0.000106897596,0 20.0007073,0 20.0007073,13.9967066 -0.000106897596,13.9967066 -0.000106897596,0" stroke="none" fill="#4E535E"></polygon></g></g><g transform="translate(0.7541147057678188 0.0)"><g clip-path="url(#57103951159752951039997)"><polygon points="0,0 20.2370143,0 20.2370143,13.8057349 0,13.8057349 0,0" stroke="none" fill="#F55561"></polygon></g></g></g></g></g></svg>