<?xml version="1.0" encoding="UTF-8"?>
<svg version="1.1" width="20px" height="18px" viewBox="0 0 20.0 18.0" xmlns="http://www.w3.org/2000/svg" xmlns:xlink="http://www.w3.org/1999/xlink">
<defs>
<clipPath id="1081151091005112111654104114">
<path d="M1538,0 L1538,1206 L0,1206 L0,0 L1538,0 Z">
</path>
</clipPath>
<clipPath id="9912101119910798994595">
<path d="M208,0 L208,2566 L0,2566 L0,0 L208,0 Z">
</path>
</clipPath>
<clipPath id="10210952951071011151005455">
<path d="M6.382,0 C7.28515978,0 8.06487205,0.632604507 8.251,1.51637708 C10.2094228,2.29139313 11.4866614,4.19432352 11.462,6.30037708 L11.462,8.47937708 L12.606,9.65237708 C12.7040089,9.75598986 12.7609899,9.89467954 12.762,10.0393771 L12.762,11.7003771 C12.7614484,11.9982202 12.5198437,12.2393776 12.222,12.2393771 L8.622,12.2393771 C8.622,13.4770472 7.61867012,14.4803771 6.381,14.4803771 C5.14332988,14.4803771 4.14,13.4770472 4.14,12.2393771 L0.54,12.2393771 C0.242156323,12.2393776 0.000551562364,11.9982202 0,11.7003771 L0,10.0363771 C0,9.89118578 0.0571199776,9.75182261 0.159,9.64837708 L1.303,8.47537708 L1.303,6.30037708 C1.27817816,4.19457271 2.55497043,2.2917147 4.513,1.51637708 C4.69912795,0.632604507 5.47884022,0 6.382,0 Z M6.50155699,13.3801245 C7.06943466,13.2946778 7.50854538,12.8201204 7.539,12.2353771 L5.214,12.2353771 C5.24688733,12.8640765 5.75204089,13.3649014 6.381,13.3923771 L6.379,13.392 Z M6.80676315,1.19064081 C6.54157408,1.03172016 6.21042592,1.03172016 5.94523685,1.19064081 C5.68004778,1.34956147 5.52390096,1.64158421 5.539,1.95037708 L5.539,2.32937708 C3.6686599,2.72324201 2.34117167,4.38931525 2.375,6.30037708 L2.375,8.91637708 L1.075,10.2513771 L1.075,11.1573771 L11.681,11.1573771 L11.679,10.2483771 L10.379,8.91337708 L10.379,6.30037708 C10.4107869,4.38995905 9.08279023,2.72555893 7.213,2.33237708 L7.213,1.95037708 C7.22809904,1.64158421 7.07195222,1.34956147 6.80676315,1.19064081 Z">
</path>
</clipPath>
<clipPath id="49951011201071204556114121">
<path d="M13.2031043,2.27152439 C13.2546018,2.15568645 13.3901198,2.10335772 13.5061043,2.15452439 C15.6754284,3.14724977 17.1061669,5.27115305 17.2111043,7.65452439 C17.2132751,7.71689816 17.1900048,7.77747612 17.1466339,7.82235557 C17.103263,7.86723502 17.0435158,7.89252444 16.9811043,7.89252444 L16.2911043,7.89252444 C16.1663855,7.89252444 16.0643578,7.79320072 16.0611043,7.66852439 C15.9641709,5.74175854 14.8096811,4.02657149 13.0611043,3.21152439 C12.9457992,3.16116614 12.892004,3.02778949 12.9401043,2.91152439 Z M6.31510427,2.27152439 L6.57810427,2.91152439 C6.62620459,3.02778949 6.57240934,3.16116614 6.45710427,3.21152439 C4.707623,4.02551303 3.55271656,5.74131903 3.45710427,7.66852439 C3.45385074,7.79320072 3.35182304,7.89252441 3.22710427,7.89252441 L2.53710427,7.89252441 C2.47478059,7.89228323 2.41519874,7.86686879 2.37188857,7.82205217 C2.3285784,7.77723556 2.30521519,7.71681991 2.30710427,7.65452439 C2.41249437,5.2713023 3.84308855,3.14761323 6.01210427,2.15452439 C6.12808874,2.10335772 6.26360673,2.15568645 6.31510427,2.27152439 Z M14.2053777,0.0154029287 C14.2629112,-0.00678319003 14.3269438,-0.0049379901 14.3831043,0.0205243948 C17.4119529,1.37069485 19.4053302,4.33028749 19.5181043,7.64452439 C19.5197231,7.70655701 19.4962075,7.76661176 19.4528975,7.81105166 C19.4095874,7.85549155 19.350158,7.88052441 19.2881043,7.88052441 L18.5981043,7.88052441 C18.4730061,7.88052441 18.3708238,7.78059305 18.3681043,7.65552439 C18.2619356,4.79926164 16.5450862,2.25034094 13.9381043,1.07852439 C13.8821432,1.05492059 13.8378509,1.01005284 13.8149714,0.953791763 C13.7920919,0.897530685 13.7924994,0.834485013 13.8161043,0.778524395 L14.0771043,0.138524395 C14.1016289,0.081948166 14.1478442,0.0375890474 14.2053777,0.0154029287 Z M5.31267867,0.0157975524 C5.3701341,0.0379535682 5.41636502,0.082133037 5.44110427,0.138524395 L5.70210427,0.778524395 C5.72570914,0.834485013 5.72611665,0.897530685 5.70323714,0.953791763 C5.68035764,1.01005284 5.63606534,1.05492059 5.58010427,1.07852439 C2.97296415,2.25015319 1.25603948,4.79918559 1.15010427,7.65552439 C1.14738475,7.78059305 1.04520249,7.8805244 0.92010427,7.8805244 L0.23010427,7.8805244 C0.168136642,7.88027066 0.108869375,7.85513012 0.0656190436,7.81075152 C0.0223687122,7.76637292 -0.00123755087,7.70647801 5.00399572e-05,7.64452439 C0.113114996,4.33036417 2.10641563,1.37088529 5.13510427,0.0205243948 C5.19129963,-0.00465688476 5.25522324,-0.00635846351 5.31267867,0.0157975524 Z">
</path>
</clipPath>
</defs>


<g clip-path="url(#1081151091005112111654104114)" transform="translate(-86.0 -66.0)"><g clip-path="url(#1081151091005112111654104114)">
<polygon points="0,0 1538,0 1538,1206 0,1206 0,0" stroke="none" fill="transparent">
</polygon>
</g>
<g transform="translate(66.0 51.0)">
<g clip-path="url(#9912101119910798994595)">
<polygon points="0,0 208,0 208,1155 0,1155 0,0" stroke="none" fill="transparent">
</polygon>
</g>
<g transform="translate(20.0 15.0)">
<g transform="translate(3.345104270494887 2.894147310775139)">
<g clip-path="url(#10210952951071011151005455)">
<polygon points="0,0 12.762,0 12.762,14.4803771 0,14.4803771 0,0" stroke="none" fill="#F55561">
</polygon>
</g>
</g>
<g clip-path="url(#49951011201071204556114121)">
<polygon points="3.46944695e-15,0 19.5181826,0 19.5181826,7.89252444 3.46944695e-15,7.89252444 3.46944695e-15,0" stroke="none" fill="#484F58">
</polygon>
</g>
</g>
</g>
</g>
</svg>