<?xml version="1.0" encoding="UTF-8"?><svg version="1.1" width="22px" height="20px" viewBox="0 0 22.0 20.0" xmlns="http://www.w3.org/2000/svg" xmlns:xlink="http://www.w3.org/1999/xlink"><defs><clipPath id="11111710210651116451169755"><path d="M1538,0 L1538,1206 L0,1206 L0,0 L1538,0 Z"></path></clipPath><clipPath id="5110410645122103111116122112"><path d="M208,0 L208,2566 L0,2566 L0,0 L208,0 Z"></path></clipPath><clipPath id="10311201184956110115115114"><path d="M20.8725424,0 C21.3401899,0.015879853 21.7110848,0.399582926 21.7110848,0.8675 C21.7110848,1.33541707 21.3401899,1.71912015 20.8725424,1.735 L19.7345424,1.735 L19.7345424,12.763 L20.8725424,12.763 C21.3225361,12.7991783 21.6696736,13.1742558 21.6709783,13.6256996 C21.6722831,14.0771434 21.3273195,14.4542212 20.8775424,14.493 L13.8235424,14.493 C13.8405424,14.508 13.8595424,14.52 13.8765424,14.537 L17.5935424,18.268 C17.9283036,18.6071626 17.9309679,19.1515771 17.5995424,19.494 C17.4413117,19.6577742 17.2237374,19.7508419 16.9960156,19.7521593 C16.7682939,19.7534767 16.5496573,19.6629326 16.3895424,19.501 L12.6705424,15.769 C12.3349964,15.4300046 12.3327726,14.884721 12.6655424,14.543 C12.6835424,14.524 12.7045424,14.51 12.7245424,14.493 L8.9975424,14.493 C9.0165424,14.509 9.0375424,14.523 9.0555424,14.541 C9.38813691,14.8839546 9.38591638,15.429763 9.0505424,15.77 L5.3325424,19.501 C5.17309519,19.663344 4.95509241,19.7547955 4.7275424,19.7547955 C4.5,19.7547955 4.28198962,19.663344 4.1225424,19.501 C3.78921331,19.159526 3.78921331,18.614474 4.1225424,18.273 L7.8415424,14.542 C7.8585424,14.525 7.8775424,14.513 7.8955424,14.498 L0.838542403,14.498 C0.370894866,14.4821201 0,14.0984171 0,13.6305 C0,13.1625829 0.370894866,12.7788799 0.838542403,12.763 L1.9785424,12.763 L1.9785424,1.735 L0.838542403,1.735 C0.370894866,1.71912015 0,1.33541707 0,0.8675 C0,0.399582926 0.370894866,0.015879853 0.838542403,0 Z M18.0225424,1.735 L3.6905424,1.735 L3.6905424,12.763 L18.0225424,12.763 L18.0225424,1.735 Z"></path></clipPath><clipPath id="4910656102108107109112115122"><path d="M11.0733585,0.0028632514 C11.3427595,-0.0175584882 11.6089606,0.071896617 11.8113585,0.250863251 C12.0099196,0.430041721 12.1254039,0.683455503 12.1303585,0.950863251 L12.1433776,2.15686325 C12.1466838,2.69219576 11.7156875,3.12901028 11.1803585,3.13286325 C10.9844965,3.13301008 10.7929033,3.07563643 10.6293585,2.96786325 L8.5403585,5.24586325 C8.36981451,5.43046305 8.1351005,5.54281091 7.8843585,5.5598644 L7.8193585,5.5598644 C7.56523243,5.5602522 7.32095463,5.46160844 7.1383585,5.28486325 L4.3573585,2.58486325 L1.6303585,5.05386325 C1.23226687,5.41249828 0.620290424,5.38625801 0.254358499,4.99486325 C0.0805688588,4.80630309 -0.0106517475,4.5561058 0.00099226539,4.29993751 C0.0126362782,4.04376923 0.126179029,3.80287936 0.316358499,3.63086325 L3.7223585,0.550863251 C4.10532494,0.205305377 4.69048577,0.215356684 5.0613585,0.573863251 L7.7783585,3.20986325 L9.1863585,1.67486325 C8.8886446,1.31690602 8.89244676,0.796432795 9.1953585,0.442863251 C9.36249168,0.246049521 9.60099998,0.123737572 9.8583585,0.102863251 Z"></path></clipPath></defs><g clip-path="url(#11111710210651116451169755)" transform="translate(-86.0 -120.0)"><g clip-path="url(#11111710210651116451169755)"><polygon points="0,0 1538,0 1538,1206 0,1206 0,0" stroke="none" fill="transparent"></polygon></g><g transform="translate(66.0 51.0)"><g clip-path="url(#5110410645122103111116122112)"><polygon points="0,0 208,0 208,1155 0,1155 0,0" stroke="none" fill="transparent"></polygon></g><g transform="translate(20.0 69.0)"><g clip-path="url(#10311201184956110115115114)"><polygon points="0,0 21.7110848,0 21.7110848,19.7547955 0,19.7547955 0,0" stroke="none" fill="#495058"></polygon></g><g transform="translate(4.859183904262267 4.327136748597695)"><g clip-path="url(#4910656102108107109112115122)"><polygon points="-2.41126563e-16,4.49640325e-15 12.1433965,4.49640325e-15 12.1433965,5.55986554 -2.41126563e-16,5.55986554 -2.41126563e-16,4.49640325e-15" stroke="none" fill="#DF535D"></polygon></g></g></g></g></g></svg>