<?xml version="1.0" encoding="UTF-8"?><svg version="1.1" width="20px" height="20px" viewBox="0 0 20.0 20.0" xmlns="http://www.w3.org/2000/svg" xmlns:xlink="http://www.w3.org/1999/xlink"><defs><clipPath id="121118119120115120120117105115"><path d="M1538,0 L1538,1206 L0,1206 L0,0 L1538,0 Z"></path></clipPath><clipPath id="555011852116114121113105121"><path d="M208,0 L208,2566 L0,2566 L0,0 L208,0 Z"></path></clipPath><clipPath id="1015511256565410211711453"><path d="M20,19.16644 L20,20 L0,20 L0,19.16644 L20,19.16644 Z M17.91662,5.41654 C18.3769,5.41654 18.74992,5.78968 18.74992,6.24988 L18.74992,17.49996 C18.74992,17.96008 18.3769,18.33316 17.91662,18.33316 L15.41662,18.33316 C14.95644,18.33316 14.58324,17.96008 14.58324,17.49996 L14.58324,6.24988 C14.58324,5.78968 14.95644,5.41654 15.41662,5.41654 L17.91662,5.41654 Z M11.24996,10.41666 C11.71006,10.41666 12.08326,10.78966 12.08326,11.24994 L12.08326,17.49996 C12.08326,17.96008 11.71006,18.33316 11.24996,18.33316 L8.74998,18.33316 C8.28968,18.33316 7.91658,17.96008 7.91658,17.49996 L7.91658,11.24994 C7.91658,10.78966 8.28968,10.41666 8.74998,10.41666 L11.24996,10.41666 Z M4.5832,9.16668 C5.0435,9.16668 5.4166,9.53976 5.4166,9.99996 L5.4166,17.49996 C5.4166,17.96008 5.0435,18.33316 4.5832,18.33316 L2.08322,18.33316 C1.62302,18.33316 1.24992,17.96008 1.24992,17.49996 L1.24992,9.99996 C1.24992,9.53976 1.62302,9.16668 2.08322,9.16668 L4.5832,9.16668 Z M17.91662,8.33334 L15.41662,8.33334 L15.41662,17.49996 L17.91662,17.49996 L17.91662,8.33334 Z M11.24996,13.33318 L8.74998,13.33318 L8.74998,17.49996 L11.24996,17.49996 L11.24996,13.33318 Z M4.5832,12.08306 L2.08322,12.08306 L2.08322,17.49996 L4.5832,17.49996 L4.5832,12.08306 Z M11.24996,11.24994 L8.74998,11.24994 L8.74998,12.49998 L11.24996,12.49998 L11.24996,11.24994 Z M4.5832,9.99996 L2.08322,9.99996 L2.08322,11.24994 L4.5832,11.24994 L4.5832,9.99996 Z M17.08332,0 C17.31332,0 17.49988,0.18646 17.49988,0.41656 L17.49988,3.33308 L16.66666,3.33308 L16.66666,1.42228 L11.0149,7.0741 C10.73512,7.35372 10.3678,7.49376 9.99992,7.49396 C9.63222,7.49412 9.2648,7.35416 8.98492,7.0741 L8.93110538,7.02028367 C8.89620741,6.98538459 8.84532814,6.9345037 8.78140289,6.87057642 L7.65661492,5.74575265 C7.5494125,5.63854682 7.44066388,5.52979474 7.33243066,5.42155808 L6.56255746,4.65166038 C6.46978613,4.55888609 6.38268416,4.47178135 6.30331313,4.39240779 L5.84242,3.9315 C5.72498,3.8142 5.5707,3.75568 5.4166,3.75568 C5.2624,3.75568 5.10822,3.8142 4.99078,3.9315 C4.99078,3.9315 4.97981725,3.94246309 4.95789174,3.96438926 L4.89942371,4.02285904 C4.87506203,4.04722146 4.84582802,4.07645635 4.81172167,4.11056373 L4.46456777,4.4577281 C4.3183977,4.60390257 4.14177554,4.78053006 3.93470129,4.98761056 L3.67159517,5.25072461 L3.60125083,5.32107107 L3.22212222,5.70021111 L3.14081512,5.78152066 L1.70195355,7.22042562 C1.48269846,7.43968733 1.25248061,7.66991212 1.0113,7.9111 L0.42212,7.32188 L4.36871174,3.3752486 C4.39063725,3.35332287 4.4016,3.34236 4.4016,3.34236 C4.6813,3.06244 5.0488,2.92248 5.41632,2.92248 C5.78402,2.92212 6.1518,3.06208 6.43158,3.34236 L6.89247606,3.80326486 C6.97184759,3.88263791 7.05895012,3.9697421 7.15172204,4.06251579 L7.92160014,4.83240859 C8.06591202,4.97672323 8.21114017,5.12195414 8.35239782,5.2632145 L9.22620529,6.13703865 C9.29733043,6.20816515 9.35969378,6.27052969 9.41123374,6.32207063 L9.56919416,6.48003407 C9.69144,6.60212 9.84572,6.6607 9.99992,6.6607 C10.1541,6.6607 10.3084,6.60212 10.42564,6.48494 L10.4378664,6.47271341 C10.4419419,6.46863788 10.4470362,6.46354347 10.4531494,6.45743018 L10.5020551,6.40852383 C10.5224324,6.38814618 10.5468853,6.36369301 10.5754136,6.33516431 L10.795489,6.11508573 C10.8449568,6.06561724 10.8993869,6.01118639 10.9587793,5.95179319 L11.1518432,5.75872651 C11.7063787,5.20418317 12.5785005,4.33204901 13.7682086,3.14232404 L14.229236,2.68129011 C14.7844694,2.12604894 15.4004907,1.5100189 16.0773,0.8332 L14.1665,0.8332 L14.1665,0 L17.08332,0 Z M17.91662,6.24988 L15.41662,6.24988 L15.41662,7.5 L17.91662,7.5 L17.91662,6.24988 Z"></path></clipPath></defs><g clip-path="url(#121118119120115120120117105115)" transform="translate(-87.0 -432.0)"><g clip-path="url(#121118119120115120120117105115)"><polygon points="0,0 1538,0 1538,1206 0,1206 0,0" stroke="none" fill="transparent"></polygon></g><g transform="translate(66.0 51.0)"><g clip-path="url(#555011852116114121113105121)"><polygon points="0,0 208,0 208,1155 0,1155 0,0" stroke="none" fill="transparent"></polygon></g><g transform="translate(21.0 381.0)"><g clip-path="url(#1015511256565410211711453)"><polygon points="0,0 20,0 20,20 0,20 0,0" stroke="none" fill="#F45561"></polygon></g></g></g></g></svg>