<?xml version="1.0" encoding="UTF-8"?><svg version="1.1" width="20px" height="18px" viewBox="0 0 20.0 18.0" xmlns="http://www.w3.org/2000/svg" xmlns:xlink="http://www.w3.org/1999/xlink"><defs><clipPath id="98117981199910610111811555"><path d="M1538,0 L1538,1206 L0,1206 L0,0 L1538,0 Z"></path></clipPath><clipPath id="11057511011201031111175698"><path d="M208,0 L208,2566 L0,2566 L0,0 L208,0 Z"></path></clipPath><clipPath id="1111191020112109525210349"><path d="M12.49994,0 L12.49994,0.818208 L1.24996,0.818208 C1.01996,0.818208 0.83314,1.001358 0.83314,1.227006 L0.83314,16.772472 C0.83314,16.998318 1.01996,17.181558 1.24996,17.181558 L17.08318,17.181558 C17.31308,17.181558 17.49992,16.998318 17.49992,16.772472 L17.49992,8.999946 L18.33322,8.999946 L18.33322,16.772472 C18.33322,17.449326 17.77254,17.99973 17.08318,17.99973 L1.24996,17.99973 C0.5606,17.99973 0,17.449326 0,16.772472 L0,1.227006 C0,0.550368 0.5606,0 1.24996,0 L12.49994,0 Z M16.87498,0.013482 C17.11664,0.013482 17.35782,0.100026 17.5341,0.273114 C17.5341,0.273114 19.7215,2.420838 19.7215,2.420838 C19.89788,2.593656 19.99468,2.823534 19.99468,3.068082 C19.99468,3.312486 19.89788,3.542292 19.7215,3.715182 C19.7215,3.715182 9.87786,13.380012 9.87786,13.380012 C9.81921,13.4375355 9.745035,13.4761354 9.66493687,13.4918401 L9.58322,13.499766 L6.66658,13.499766 C6.4363,13.499766 6.24994,13.316904 6.24994,13.090752 L6.24994,10.227078 C6.24994,10.118394 6.29384,10.014516 6.37196,9.937818 C6.37196,9.937818 8.91704417,7.43904362 11.4189913,4.98262136 L11.9180387,4.49265453 C13.8911767,2.55541928 15.7282988,0.751725061 16.133253,0.354139367 L16.1947642,0.293747399 C16.2086467,0.280117485 16.21578,0.273114 16.21578,0.273114 C16.39188,0.100026 16.63316,0.013482 16.87498,0.013482 Z M7.08324,10.396494 L7.08324,12.681738 L9.4107,12.681738 L7.08324,10.396494 Z M15.20812,2.4192 L7.6725,9.818064 L9.99986,12.103218 L17.53576,4.704282 L15.20812,2.4192 Z M16.80486,0.851634 L16.7586028,0.897049378 C16.6455295,1.00806474 16.3251552,1.32260829 15.79748,1.84068 L18.12484,4.125546 C18.79656,3.466242 19.13242,3.13659 19.13242,3.13659 C19.171,3.098844 19.171,3.037104 19.13242,2.999214 C19.13242,2.999214 16.94484,0.851634 16.94484,0.851634 C16.89672,0.804474 16.8529,0.804474 16.80486,0.851634 Z"></path></clipPath></defs><g clip-path="url(#98117981199910610111811555)" transform="translate(-86.0 -170.0)"><g clip-path="url(#98117981199910610111811555)"><polygon points="0,0 1538,0 1538,1206 0,1206 0,0" stroke="none" fill="transparent"></polygon></g><g transform="translate(66.0 51.0)"><g clip-path="url(#11057511011201031111175698)"><polygon points="0,0 208,0 208,1155 0,1155 0,0" stroke="none" fill="transparent"></polygon></g><g transform="translate(0.0 103.0)"><g transform="translate(20.0 16.0)"><g clip-path="url(#1111191020112109525210349)"><polygon points="0,0 19.99468,0 19.99468,17.99973 0,17.99973 0,0" stroke="none" fill="#DF535D"></polygon></g></g></g></g></g></svg>